<?xml version="1.0" standalone="no"?>
<!DOCTYPE svg PUBLIC "-//W3C//DTD SVG 20010904//EN"
 "http://www.w3.org/TR/2001/REC-SVG-20010904/DTD/svg10.dtd">
<svg version="1.0" xmlns="http://www.w3.org/2000/svg"
 width="806.000000pt" height="806.000000pt" viewBox="0 0 806.000000 806.000000"
 preserveAspectRatio="xMidYMid meet">
<metadata>
Created by potrace 1.14, written by Peter Selinger 2001-2017
</metadata>
<g transform="translate(0.000000,806.000000) scale(0.100000,-0.100000)"
fill="#000000" stroke="none">
<path d="M0 4030 l0 -4030 4030 0 4030 0 0 4030 0 4030 -4030 0 -4030 0 0
-4030z m7650 0 l0 -3620 -3620 0 -3620 0 0 3620 0 3620 3620 0 3620 0 0 -3620z"/>
<path d="M1617 5753 c-4 -3 -7 -782 -7 -1730 l0 -1723 363 2 362 3 3 718 2
717 675 0 675 0 -2 308 -3 307 -672 3 -673 2 0 390 0 390 690 0 690 0 0 310 0
310 -1048 0 c-577 0 -1052 -3 -1055 -7z"/>
<path d="M5427 4719 c-209 -30 -378 -126 -509 -285 l-63 -77 -3 157 -3 156
-329 0 -330 0 0 -1185 0 -1185 345 0 345 0 0 688 c0 378 5 719 10 759 13 102
44 188 95 263 51 75 92 111 173 148 52 25 68 27 172 27 95 -1 125 -5 171 -23
109 -43 173 -109 220 -227 l24 -60 3 -787 3 -788 345 0 345 0 -3 888 c-3 883
-3 887 -26 967 -12 44 -41 118 -63 165 -34 69 -59 102 -133 176 -95 94 -173
143 -293 185 -123 42 -348 60 -496 38z"/>
</g>
</svg>
