<?xml version="1.0" encoding="UTF-8" standalone="no"?>
<!-- Created with Inkscape (http://www.inkscape.org/) -->

<svg
   width="700"
   height="700"
   viewBox="0 0 700 700"
   version="1.1"
   id="svg5"
   xmlns="http://www.w3.org/2000/svg"
   xmlns:svg="http://www.w3.org/2000/svg">
  <defs
     id="defs2" />
  <g
     id="layer1">
    <rect
       style="opacity:1;fill:none;fill-rule:evenodd;stroke:#000000;stroke-width:26.7094;stroke-miterlimit:4;stroke-dasharray:none;stroke-opacity:1;paint-order:markers fill stroke"
       id="rect225"
       width="640.24908"
       height="642.35791"
       x="28.611572"
       y="28.596663" />
    <path
       d="m 151.76628,490.23609 -1.01302,-280.49701 168.58284,-0.5065 v 46.79003 l -114.54797,1.01299 0.5066,68.75169 110.88134,-0.50649 0.5066,46.77988 -111.38794,-1.01302 v 119.69493 z"
       style="font-weight:bold;font-size:229.334px;line-height:1.25;font-family:Raleway;-inkscape-font-specification:'Raleway Bold';opacity:1;stroke-width:9.7401"
       id="path12354" />
    <path
       d="m 480.9654,295.73156 c -10.1885,0.68592 -20.44341,1.34598 -30.41004,3.70627 -6.7186,1.94448 -12.55839,6.00825 -17.94746,10.3457 -4.0239,3.50043 -8.79018,7.97649 -11.79238,11.87526 -0.82513,1.0716 -2.13901,3.00532 -3.60003,3.56352 -0.69924,0.26722 -1.32289,-3.29391 -1.44674,-4.43277 -0.4806,-7.15734 -0.88323,-14.32125 -1.33376,-21.48113 -1.77223,-1.0828 -3.9031,-0.45183 -5.84641,-0.58066 -14.95206,-0.13811 -29.90462,-0.11296 -44.85685,-0.11619 V 490.5945 l 52.8698,-0.50767 c 0,-37.0417 0.017,-74.08342 0.0238,-111.12514 0.78758,-15.67674 5.22819,-27.24547 14.88239,-36.16377 3.20761,-3.02955 7.26649,-5.06141 11.54537,-6.07242 4.94721,-1.2738 10.09065,-1.50683 15.17665,-1.53868 4.84256,0.0827 9.76939,0.57924 14.31822,2.33231 4.76969,2.08259 8.70812,5.63037 12.26347,9.35691 3.1534,3.45178 5.82076,7.55014 6.70042,12.20905 1.37912,6.14476 1.64075,12.46375 1.94942,18.73243 0.44068,12.60915 0.36185,25.22847 0.46549,37.84313 0.12232,24.87841 0.24514,49.75683 0.3678,74.63524 17.27846,0.21456 34.55844,0.23924 51.83792,0.29199 1.06467,-1.5251 0.31735,-3.42695 0.43814,-5.1264 0.2161,-8.12865 0.0595,-16.26061 0.10191,-24.39093 -0.0169,-30.92436 -0.0238,-61.84874 -0.0357,-92.7731 -1.32357,-10.83941 -2.97316,-21.63894 -5.01024,-32.36767 -1.15062,-3.05918 -2.66056,-5.9687 -4.12768,-8.88497 -2.33847,-4.51988 -4.95571,-8.89474 -7.83067,-13.09385 -5.16042,-5.49834 -11.75416,-9.3415 -18.36215,-12.83427 -9.55618,-4.03007 -20.01615,-5.5409 -30.34022,-5.38521 z"
       style="font-weight:bold;font-size:229.334px;line-height:1.25;font-family:Raleway;-inkscape-font-specification:'Raleway Bold';opacity:1;stroke-width:9.27467"
       id="path12356" />
  </g>
</svg>
